<?xml version="1.0" standalone="no"?>
<!DOCTYPE svg PUBLIC "-//W3C//DTD SVG 20010904//EN"
 "http://www.w3.org/TR/2001/REC-SVG-20010904/DTD/svg10.dtd">
<svg version="1.0" xmlns="http://www.w3.org/2000/svg"
 width="500.000000pt" height="500.000000pt" viewBox="0 0 500.000000 500.000000"
 preserveAspectRatio="xMidYMid meet">
<metadata>
Created by potrace 1.11, written by Peter Selinger 2001-2013
</metadata>
<g transform="translate(0.000000,500.000000) scale(0.100000,-0.100000)"
fill="#000000" stroke="none">
<path d="M995 3762 c-2 -2 -21 -6 -42 -9 -21 -3 -123 -29 -227 -59 -105 -30
-200 -54 -212 -54 -13 0 -27 -6 -31 -14 -4 -7 -30 -21 -58 -30 -73 -24 -150
-71 -180 -110 -27 -35 -37 -77 -39 -161 -1 -46 2 -53 42 -92 49 -49 103 -68
232 -83 184 -22 218 -29 290 -57 91 -34 96 -50 41 -111 -28 -30 -69 -57 -143
-92 -131 -63 -183 -79 -281 -87 -45 -3 -82 -11 -88 -19 -7 -8 -11 -49 -11 -93
1 -65 5 -86 24 -115 29 -45 48 -50 163 -43 227 15 487 164 575 329 28 52 32
70 31 125 -2 78 -17 110 -90 188 -10 11 -22 33 -25 49 -8 34 -67 96 -90 96 -9
0 -26 9 -37 19 -11 10 -42 24 -67 31 -68 17 -71 32 -9 48 114 29 158 34 303
36 l151 2 -8 -28 c-16 -59 50 -185 100 -189 35 -3 94 -1 185 5 53 3 96 3 96
-2 0 -4 -16 -38 -36 -77 -57 -113 -134 -324 -141 -385 -4 -47 -1 -71 21 -131
30 -84 26 -78 89 -113 54 -29 95 -33 136 -11 32 16 41 33 41 76 0 21 -7 32
-24 40 -36 17 -45 46 -31 104 12 47 32 94 124 290 21 44 56 119 77 166 l39 87
90 12 c49 6 119 14 154 17 l64 6 -8 -39 c-4 -21 -8 -50 -10 -64 -2 -14 -8 -43
-14 -65 -6 -22 -11 -110 -11 -196 0 -153 0 -156 25 -179 15 -14 21 -26 15 -30
-11 -7 38 -109 67 -142 36 -40 91 -58 178 -58 74 0 95 4 172 36 139 58 211
110 274 202 17 23 36 42 44 42 8 0 15 9 15 19 0 14 5 18 18 14 14 -3 27 8 49
44 79 125 111 199 128 288 l17 90 -26 69 c-14 37 -26 78 -26 89 0 22 -82 107
-103 107 -28 0 -57 -40 -57 -79 0 -25 -5 -41 -15 -45 -9 -3 -15 -18 -15 -38
-1 -47 -16 -109 -51 -198 -23 -62 -44 -94 -94 -148 -36 -38 -86 -84 -112 -100
-53 -34 -198 -86 -213 -77 -30 19 -38 143 -14 225 28 98 27 110 -6 185 -18 39
-38 74 -46 78 -9 5 -11 18 -8 36 8 36 -14 72 -72 124 l-43 38 -91 1 c-50 0
-157 -8 -237 -18 -113 -13 -149 -15 -164 -6 -27 17 -59 15 -82 -5 -14 -14 -49
-20 -147 -28 l-127 -10 10 22 c8 18 4 32 -23 75 -79 127 -104 159 -129 164
-14 3 -43 10 -64 16 -36 9 -193 9 -202 0z"/>
<path d="M4631 3550 c-39 -13 -71 -35 -120 -83 -36 -35 -76 -73 -88 -83 -13
-10 -23 -24 -23 -30 0 -13 -86 -127 -99 -132 -9 -3 -37 91 -47 161 -8 62 -40
100 -115 138 -73 37 -101 37 -129 2 -19 -24 -21 -35 -15 -78 4 -27 9 -73 11
-100 2 -28 10 -77 19 -110 8 -33 15 -66 15 -73 0 -25 53 -136 77 -163 13 -14
23 -29 23 -33 0 -4 -13 -26 -28 -49 -53 -78 -131 -234 -137 -273 -9 -54 24
-101 95 -136 30 -15 58 -28 61 -28 15 0 89 86 105 124 10 23 33 61 51 85 18
24 33 49 33 56 0 10 80 140 127 205 10 14 28 44 41 68 13 23 41 66 62 95 22
29 40 55 40 60 0 4 7 7 15 7 8 0 21 13 30 29 8 16 48 60 89 97 41 37 78 76 83
88 17 37 -3 79 -52 108 -25 15 -45 34 -45 42 0 23 -24 25 -79 6z"/>
<path d="M3205 3538 c-25 -81 -25 -85 -10 -127 18 -53 18 -51 1 -51 -22 0 -25
-48 -9 -125 17 -82 20 -213 5 -241 -5 -10 -22 -62 -37 -114 -15 -52 -31 -101
-37 -107 -15 -19 0 -126 25 -175 12 -23 36 -51 54 -61 l32 -18 158 60 c287
108 410 175 497 272 136 151 60 334 -211 512 -56 36 -114 69 -130 73 -15 4
-90 31 -165 60 -143 57 -166 62 -173 42z m259 -288 c122 -42 172 -70 240 -134
l58 -55 -22 -32 c-27 -37 -94 -82 -159 -105 -25 -10 -56 -26 -68 -37 -13 -11
-23 -18 -23 -14 0 4 -23 -2 -50 -13 -28 -11 -53 -20 -56 -20 -5 0 -2 25 12 95
16 84 6 240 -20 323 -4 12 -6 22 -3 22 2 0 43 -14 91 -30z"/>
<path d="M1480 2003 c-15 -19 -20 -36 -16 -55 3 -16 1 -28 -4 -28 -6 0 -10 -6
-10 -13 0 -22 -104 -104 -196 -155 -13 -7 -32 -24 -42 -37 -11 -14 -26 -25
-34 -25 -8 0 -51 -34 -96 -76 -64 -59 -89 -91 -117 -148 -35 -73 -43 -110 -25
-121 6 -3 10 -23 10 -43 0 -20 6 -59 13 -87 11 -42 22 -57 71 -97 78 -62 190
-115 263 -123 32 -4 76 -11 98 -16 22 -5 111 -9 198 -9 139 0 164 3 207 21 52
22 74 60 47 83 -7 6 -31 32 -52 59 -37 46 -38 47 -57 30 -18 -16 -41 -18 -202
-17 -193 1 -270 12 -317 45 -16 11 -48 26 -71 33 -48 14 -52 29 -21 95 58 126
195 271 374 396 133 92 146 97 179 78 62 -37 150 -198 149 -273 -1 -90 -12
-123 -47 -143 -29 -17 -36 -18 -48 -6 -22 23 -23 79 -2 154 22 78 19 136 -8
166 -23 25 -36 24 -72 -6 -19 -15 -42 -25 -62 -25 -19 0 -54 -13 -82 -30 -26
-16 -51 -30 -54 -30 -3 0 -20 -11 -38 -25 -18 -14 -37 -25 -43 -25 -12 0 -99
-85 -121 -118 -42 -65 8 -168 100 -207 43 -18 207 -20 278 -4 25 6 72 10 105
9 69 -1 106 19 200 108 60 57 70 88 70 212 0 72 -23 122 -114 250 -25 36 -45
70 -43 76 4 17 -95 102 -148 128 -33 17 -65 23 -122 24 -72 2 -78 1 -98 -25z
m70 -578 c0 -42 -2 -45 -27 -46 -32 -1 -67 2 -71 6 -11 11 66 82 91 84 4 1 7
-19 7 -44z"/>
<path d="M2280 1962 c-6 -2 -10 -17 -10 -32 0 -25 5 -30 35 -36 73 -13 75 -16
205 -417 66 -205 126 -383 133 -397 9 -19 21 -25 45 -26 17 0 36 2 40 5 5 3
31 71 59 151 146 416 156 443 164 424 28 -71 110 -283 159 -413 32 -85 64
-157 71 -161 6 -4 25 -7 43 -6 l31 1 115 345 c126 377 156 450 193 474 52 35
146 16 167 -33 15 -38 10 -665 -7 -682 -6 -6 -32 -14 -56 -16 -34 -4 -47 -10
-50 -25 -13 -48 -9 -49 226 -46 l222 3 2 27 c2 30 1 30 -79 43 -22 3 -42 14
-48 25 -5 10 -10 70 -10 133 l0 114 49 -5 c115 -11 262 39 327 110 51 56 67
101 67 184 1 59 -4 79 -26 117 -44 75 -116 119 -213 133 -38 5 -733 9 -816 5
-13 -1 -18 -9 -18 -31 0 -25 5 -31 38 -40 22 -5 46 -18 55 -28 16 -17 16 -24
-4 -98 -21 -81 -101 -351 -116 -391 -7 -18 -30 34 -117 260 -59 155 -114 292
-121 303 -10 16 -22 21 -45 19 -17 -1 -33 -5 -36 -7 -5 -5 -144 -406 -177
-510 -11 -38 -24 -68 -28 -68 -4 0 -15 26 -24 58 -8 31 -31 104 -50 162 -63
195 -77 247 -73 266 2 12 19 24 46 32 37 12 42 18 42 43 0 16 -6 29 -12 30
-43 3 -390 3 -398 1z m1796 -91 c52 -24 84 -74 91 -144 7 -67 -17 -154 -51
-186 -31 -29 -108 -50 -150 -41 l-31 6 -3 178 c-2 123 1 183 9 192 16 20 86
17 135 -5z"/>
<path d="M4404 1961 c-2 -2 -4 -17 -4 -32 0 -28 15 -39 54 -39 12 0 31 -7 43
-15 22 -15 22 -18 23 -353 1 -380 2 -371 -71 -381 -41 -6 -44 -8 -47 -38 l-3
-33 215 0 c166 0 216 3 217 13 0 6 2 20 4 29 3 18 -5 22 -67 32 -30 6 -38 12
-47 39 -6 19 -9 162 -8 355 2 308 3 324 21 338 11 8 31 14 44 14 37 0 61 17
57 41 -3 12 -7 24 -9 27 -6 6 -416 9 -422 3z"/>
</g>
</svg>
